<svg width="144" height="48" viewBox="0 0 144 48" fill="none" xmlns="http://www.w3.org/2000/svg">
<path d="M132.162 0.000156L11.4416 0.000156C11.0016 0.000156 10.5668 0.000156 10.1279 0.002556C9.76056 0.004956 9.39611 0.011928 9.0252 0.017796C8.21942 0.0272782 7.41553 0.0981675 6.62052 0.229848C5.82663 0.364395 5.05761 0.618055 4.33946 0.982248C3.6222 1.34952 2.96681 1.82676 2.39708 2.39664C1.82436 2.96492 1.34696 3.62178 0.98322 4.34195C0.61848 5.06069 0.365569 5.83088 0.23322 6.62593C0.0996131 7.41998 0.0277181 8.22318 0.01818 9.02833C0.007044 9.39625 0.005868 9.7654 0 10.1334L0 37.8705C0.005868 38.2431 0.007044 38.604 0.01818 38.9768C0.027721 39.7819 0.0996161 40.585 0.23322 41.379C0.365203 42.1745 0.61813 42.9452 0.98322 43.6642C1.34679 44.382 1.82426 45.0362 2.39708 45.6014C2.96465 46.1738 3.62046 46.6513 4.33946 47.0158C5.0576 47.381 5.82654 47.6361 6.62052 47.7728C7.41566 47.9034 8.21947 47.9743 9.0252 47.9849C9.39611 47.9931 9.76056 47.9978 10.1279 47.9978C10.5668 48.0002 11.0016 48.0002 11.4416 48.0002L132.162 48.0002C132.593 48.0002 133.031 48.0002 133.463 47.9978C133.828 47.9978 134.203 47.9931 134.569 47.9849C135.373 47.9749 136.175 47.9039 136.969 47.7728C137.765 47.6352 138.537 47.3801 139.259 47.0158C139.977 46.6511 140.632 46.1736 141.199 45.6014C141.771 45.034 142.249 44.3803 142.617 43.6642C142.98 42.9447 143.23 42.1741 143.36 41.379C143.494 40.5849 143.568 39.7819 143.583 38.9768C143.588 38.604 143.588 38.2431 143.588 37.8705C143.597 37.4345 143.597 37.001 143.597 36.5579V11.4435C143.597 11.0041 143.597 10.5681 143.588 10.1334C143.588 9.7654 143.588 9.39625 143.583 9.02828C143.568 8.22306 143.494 7.42004 143.36 6.62588C143.23 5.83129 142.979 5.06116 142.617 4.3419C141.876 2.89839 140.702 1.72339 139.259 0.98214C138.537 0.618837 137.765 0.365245 136.969 0.22974C136.175 0.0974794 135.373 0.0265653 134.569 0.017628C134.203 0.011772 133.828 0.00474 133.463 0.0024C133.031 0 132.593 0 132.162 0V0.000156Z" fill="#A6A6A6"/>
<path d="M10.1338 46.95C9.76818 46.95 9.41139 46.9454 9.04864 46.9372C8.29718 46.9274 7.54748 46.862 6.80568 46.7415C6.11398 46.6224 5.44392 46.4008 4.81759 46.084C4.197 45.7699 3.63097 45.358 3.14119 44.8641C2.64432 44.376 2.23065 43.8099 1.91658 43.1883C1.59904 42.5626 1.37929 41.8919 1.26498 41.1996C1.14152 40.4558 1.07473 39.7036 1.06518 38.9496C1.05757 38.6966 1.04761 37.8539 1.04761 37.8539L1.04761 10.1333C1.04761 10.1333 1.05822 9.30356 1.06524 9.05981C1.07439 8.30703 1.14079 7.55603 1.26387 6.81332C1.3784 6.11915 1.59832 5.44655 1.91602 4.8188C2.22894 4.19758 2.64031 3.63108 3.13419 3.14126C3.62752 2.64679 4.19535 2.23277 4.817 1.9143C5.44189 1.59856 6.11069 1.37853 6.80098 1.26157C7.54522 1.13985 8.29753 1.07404 9.0516 1.0647L10.1344 1.05005L133.457 1.05005L134.552 1.06529C135.3 1.07417 136.045 1.13939 136.782 1.2604C137.48 1.37882 138.156 1.60039 138.788 1.91782C140.033 2.55963 141.046 3.57504 141.686 4.82173C141.998 5.44514 142.215 6.11226 142.328 6.80044C142.452 7.54924 142.522 8.30613 142.536 9.06509C142.54 9.40493 142.54 9.76997 142.54 10.1333C142.549 10.5833 142.549 11.0116 142.549 11.4434V36.5578C142.549 36.9938 142.549 37.4192 142.54 37.848C142.54 38.2383 142.54 38.5958 142.535 38.9637C142.521 39.7091 142.453 40.4525 142.33 41.1879C142.218 41.8852 142 42.5611 141.682 43.1919C141.366 43.8068 140.954 44.368 140.463 44.8547C139.973 45.3513 139.406 45.7656 138.784 46.0817C138.154 46.4009 137.479 46.6233 136.782 46.7415C136.041 46.8626 135.291 46.9281 134.539 46.9372C134.188 46.9454 133.82 46.95 133.463 46.95L132.162 46.9524L10.1338 46.95Z" fill="black"/>
<path d="M29.7226 24.3608C29.7355 23.3592 30.0015 22.3771 30.496 21.506C30.9904 20.6348 31.6972 19.9029 32.5505 19.3783C32.0084 18.6041 31.2932 17.967 30.4619 17.5175C29.6305 17.0681 28.7057 16.8187 27.7611 16.7891C25.746 16.5776 23.7924 17.9949 22.7656 17.9949C21.7189 17.9949 20.1379 16.8101 18.4354 16.8451C17.3342 16.8807 16.261 17.2009 15.3203 17.7746C14.3797 18.3483 13.6037 19.1558 13.0679 20.1186C10.7471 24.1367 12.4782 30.0419 14.7013 33.2899C15.8136 34.8803 17.1135 36.6568 18.8145 36.5938C20.479 36.5248 21.1006 35.5324 23.1098 35.5324C25.1003 35.5324 25.6835 36.5938 27.419 36.5538C29.205 36.5248 30.3303 34.9563 31.4036 33.3508C32.2028 32.2176 32.8177 30.9651 33.2257 29.6398C32.188 29.2009 31.3025 28.4663 30.6796 27.5275C30.0566 26.5888 29.7238 25.4874 29.7226 24.3608Z" fill="white"/>
<path d="M26.4447 14.6531C27.4185 13.484 27.8983 11.9814 27.7821 10.4644C26.2943 10.6206 24.92 11.3317 23.933 12.4559C23.4505 13.0051 23.0809 13.644 22.8454 14.3361C22.6099 15.0283 22.5131 15.76 22.5606 16.4896C23.3047 16.4972 24.0409 16.3359 24.7137 16.0178C25.3865 15.6997 25.9784 15.2331 26.4447 14.6531Z" fill="white"/>
<path d="M50.7627 32.5677H45.0827L43.7186 36.5954H41.3127L46.6928 21.6938H49.1924L54.5725 36.5954H52.1256L50.7627 32.5677ZM45.6709 30.7091H50.1733L47.9538 24.1724H47.8917L45.6709 30.7091Z" fill="white"/>
<path d="M66.1915 31.1637C66.1915 34.5399 64.3845 36.709 61.6576 36.709C60.9668 36.7452 60.2798 36.5861 59.6752 36.2499C59.0707 35.9137 58.573 35.4141 58.2392 34.8082H58.1876V40.1895H55.9575V25.7309H58.1161V27.5379H58.1572C58.5063 26.935 59.0124 26.438 59.6215 26.0997C60.2307 25.7615 60.9202 25.5948 61.6165 25.6172C64.3739 25.6172 66.1915 27.7969 66.1915 31.1637ZM63.8993 31.1637C63.8993 28.9641 62.7626 27.518 61.0283 27.518C59.3243 27.518 58.1783 28.9946 58.1783 31.1637C58.1783 33.3528 59.3243 34.8188 61.0283 34.8188C62.7626 34.8188 63.8993 33.3833 63.8993 31.1637Z" fill="white"/>
<path d="M78.1495 31.1637C78.1495 34.5399 76.3425 36.709 73.6156 36.709C72.9248 36.7452 72.2378 36.586 71.6332 36.2499C71.0287 35.9137 70.531 35.4141 70.1972 34.8082H70.1456V40.1895H67.9155V25.7309H70.0741V27.5379H70.1151C70.4643 26.935 70.9704 26.438 71.5795 26.0997C72.1887 25.7615 72.8781 25.5948 73.5745 25.6172C76.332 25.6172 78.1495 27.7969 78.1495 31.1637ZM75.8574 31.1637C75.8574 28.9641 74.7206 27.518 72.9863 27.518C71.2824 27.518 70.1363 28.9946 70.1363 31.1637C70.1363 33.3528 71.2824 34.8188 72.9863 34.8188C74.7206 34.8188 75.8574 33.3833 75.8574 31.1637H75.8574Z" fill="white"/>
<path d="M86.0526 32.4434C86.2179 33.9212 87.6534 34.8914 89.6151 34.8914C91.4948 34.8914 92.8472 33.9211 92.8472 32.5887C92.8472 31.432 92.0315 30.7395 90.1003 30.2649L88.169 29.7996C85.4327 29.1387 84.1624 27.859 84.1624 25.7824C84.1624 23.2113 86.403 21.4453 89.5847 21.4453C92.7335 21.4453 94.8921 23.2113 94.9647 25.7824H92.7135C92.5788 24.2953 91.3495 23.3977 89.553 23.3977C87.7565 23.3977 86.5272 24.3059 86.5272 25.6277C86.5272 26.6813 87.3124 27.3012 89.2331 27.7757L90.8749 28.1789C93.9323 28.9019 95.2026 30.1301 95.2026 32.3097C95.2026 35.0976 92.9819 36.8437 89.4499 36.8437C86.1452 36.8437 83.9139 35.1386 83.7698 32.4433L86.0526 32.4434Z" fill="white"/>
<path d="M100.015 23.1597V25.7308H102.081V27.4968H100.015V33.4862C100.015 34.4167 100.429 34.8503 101.337 34.8503C101.583 34.846 101.827 34.8288 102.071 34.7987V36.5542C101.663 36.6305 101.247 36.665 100.832 36.6573C98.6326 36.6573 97.7747 35.8311 97.7747 33.7241V27.4968H96.1951V25.7308H97.7747V23.1597H100.015Z" fill="white"/>
<path d="M103.278 31.1636C103.278 27.7452 105.291 25.5972 108.431 25.5972C111.581 25.5972 113.585 27.7452 113.585 31.1636C113.585 34.5913 111.591 36.73 108.431 36.73C105.271 36.73 103.278 34.5913 103.278 31.1636ZM111.312 31.1636C111.312 28.8187 110.238 27.4347 108.431 27.4347C106.624 27.4347 105.55 28.8292 105.55 31.1636C105.55 33.5179 106.624 34.8913 108.431 34.8913C110.238 34.8913 111.312 33.5179 111.312 31.1636H111.312Z" fill="white"/>
<path d="M115.423 25.7308H117.55V27.58H117.602C117.746 27.0025 118.084 26.4921 118.56 26.1346C119.036 25.7771 119.62 25.5944 120.215 25.6171C120.472 25.6162 120.728 25.6441 120.979 25.7003V27.7863C120.655 27.6871 120.316 27.6416 119.977 27.6515C119.653 27.6384 119.33 27.6955 119.03 27.8189C118.731 27.9424 118.461 28.1293 118.24 28.3668C118.02 28.6042 117.853 28.8867 117.752 29.1947C117.65 29.5027 117.617 29.829 117.653 30.1511V36.5953H115.423L115.423 25.7308Z" fill="white"/>
<path d="M131.261 33.4042C130.961 35.3765 129.04 36.73 126.583 36.73C123.422 36.73 121.461 34.6124 121.461 31.2151C121.461 27.8073 123.433 25.5972 126.489 25.5972C129.495 25.5972 131.385 27.662 131.385 30.9561V31.7202H123.712V31.855C123.676 32.2548 123.727 32.6576 123.859 33.0366C123.991 33.4156 124.202 33.7622 124.479 34.0532C124.755 34.3443 125.09 34.5732 125.462 34.7248C125.834 34.8763 126.233 34.9471 126.635 34.9323C127.162 34.9817 127.69 34.8596 128.142 34.5843C128.594 34.309 128.946 33.8951 129.144 33.4042L131.261 33.4042ZM123.722 30.1616H129.154C129.174 29.8021 129.12 29.4423 128.994 29.1049C128.868 28.7674 128.674 28.4596 128.424 28.2007C128.174 27.9417 127.873 27.7373 127.54 27.6003C127.207 27.4632 126.849 27.3965 126.489 27.4042C126.126 27.402 125.766 27.4718 125.43 27.6095C125.094 27.7472 124.789 27.9501 124.531 28.2064C124.274 28.4628 124.07 28.7676 123.931 29.1031C123.792 29.4387 123.721 29.7985 123.722 30.1616V30.1616Z" fill="white"/>
<path d="M45.3915 10.4774C45.859 10.4438 46.3282 10.5144 46.7651 10.6842C47.2021 10.8539 47.5959 11.1185 47.9182 11.4588C48.2405 11.7992 48.4832 12.2068 48.6289 12.6523C48.7746 13.0978 48.8196 13.5702 48.7606 14.0352C48.7606 16.3227 47.5243 17.6376 45.3915 17.6376H42.8052V10.4774H45.3915ZM43.9173 16.625H45.2673C45.6014 16.6449 45.9357 16.5902 46.2459 16.4646C46.5562 16.3391 46.8345 16.1459 47.0607 15.8993C47.2869 15.6526 47.4553 15.3586 47.5535 15.0386C47.6517 14.7187 47.6774 14.3809 47.6286 14.0498C47.6738 13.72 47.6456 13.3842 47.5458 13.0666C47.4461 12.749 47.2774 12.4574 47.0517 12.2127C46.826 11.968 46.549 11.7762 46.2405 11.6512C45.932 11.5261 45.5997 11.4708 45.2673 11.4892H43.9173V16.625Z" fill="white"/>
<path d="M50.0169 14.9335C49.983 14.5784 50.0236 14.2202 50.1362 13.8817C50.2488 13.5432 50.4309 13.232 50.6708 12.968C50.9108 12.704 51.2032 12.4931 51.5295 12.3488C51.8557 12.2044 52.2085 12.1299 52.5652 12.1299C52.9219 12.1299 53.2747 12.2044 53.6009 12.3488C53.9271 12.4931 54.2196 12.704 54.4595 12.968C54.6994 13.232 54.8816 13.5432 54.9942 13.8817C55.1068 14.2202 55.1474 14.5784 55.1134 14.9335C55.148 15.289 55.1079 15.6478 54.9956 15.9868C54.8833 16.3258 54.7013 16.6376 54.4613 16.9021C54.2213 17.1666 53.9286 17.378 53.6021 17.5226C53.2755 17.6673 52.9223 17.742 52.5652 17.742C52.208 17.742 51.8548 17.6673 51.5283 17.5226C51.2017 17.378 50.9091 17.1666 50.6691 16.9021C50.4291 16.6376 50.2471 16.3258 50.1348 15.9868C50.0225 15.6478 49.9823 15.289 50.0169 14.9335ZM54.0165 14.9335C54.0165 13.7623 53.4904 13.0773 52.5669 13.0773C51.64 13.0773 51.1185 13.7623 51.1185 14.9335C51.1185 16.1142 51.64 16.7939 52.5669 16.7939C53.4904 16.7939 54.0166 16.1095 54.0166 14.9335H54.0165Z" fill="white"/>
<path d="M61.888 17.6374H60.7817L59.6649 13.6577H59.5806L58.4685 17.6374H57.3728L55.8833 12.2339H56.9649L57.9329 16.3571H58.0126L59.1235 12.2339H60.1466L61.2575 16.3571H61.3419L62.3052 12.2339H63.3716L61.888 17.6374Z" fill="white"/>
<path d="M64.6243 12.2341H65.6508V13.0925H65.7305C65.8657 12.7842 66.0937 12.5258 66.3828 12.3532C66.6718 12.1806 67.0075 12.1026 67.343 12.1298C67.6059 12.1101 67.8699 12.1497 68.1155 12.2458C68.361 12.3419 68.5817 12.4921 68.7613 12.6851C68.941 12.8781 69.0749 13.109 69.1531 13.3608C69.2313 13.6126 69.2519 13.8788 69.2133 14.1396V17.6376H68.1469V14.4074C68.1469 13.539 67.7696 13.1072 66.9809 13.1072C66.8024 13.0989 66.6242 13.1293 66.4585 13.1962C66.2929 13.2632 66.1436 13.3653 66.0211 13.4953C65.8985 13.6254 65.8056 13.7804 65.7485 13.9498C65.6915 14.1191 65.6718 14.2988 65.6907 14.4765V17.6377H64.6243L64.6243 12.2341Z" fill="white"/>
<path d="M70.9126 10.1245H71.979V17.6374H70.9126V10.1245Z" fill="white"/>
<path d="M73.4615 14.9331C73.4275 14.578 73.4682 14.2197 73.5808 13.8812C73.6935 13.5427 73.8756 13.2315 74.1156 12.9675C74.3555 12.7035 74.648 12.4926 74.9742 12.3483C75.3005 12.204 75.6533 12.1294 76.01 12.1294C76.3668 12.1294 76.7196 12.204 77.0458 12.3483C77.3721 12.4926 77.6645 12.7035 77.9045 12.9675C78.1445 13.2315 78.3266 13.5427 78.4392 13.8812C78.5519 14.2197 78.5925 14.578 78.5586 14.9331C78.5931 15.2886 78.553 15.6474 78.4406 15.9864C78.3283 16.3255 78.1462 16.6372 77.9062 16.9017C77.6662 17.1662 77.3735 17.3776 77.0469 17.5222C76.7204 17.6668 76.3672 17.7416 76.01 17.7416C75.6529 17.7416 75.2997 17.6668 74.9731 17.5222C74.6465 17.3776 74.3538 17.1662 74.1138 16.9017C73.8738 16.6372 73.6918 16.3255 73.5794 15.9864C73.4671 15.6474 73.4269 15.2886 73.4615 14.9331ZM77.4611 14.9331C77.4611 13.7619 76.9349 13.0769 76.0115 13.0769C75.0845 13.0769 74.5631 13.7619 74.5631 14.9332C74.5631 16.1138 75.0846 16.7935 76.0115 16.7935C76.9349 16.7935 77.4611 16.1091 77.4611 14.9331H77.4611Z" fill="white"/>
<path d="M79.6812 16.1091C79.6812 15.1364 80.4054 14.5757 81.6909 14.496L83.1546 14.4116V13.9452C83.1546 13.3745 82.7772 13.0522 82.0483 13.0522C81.453 13.0522 81.0405 13.2708 80.9222 13.6528H79.8897C79.9987 12.7247 80.8718 12.1294 82.0976 12.1294C83.4523 12.1294 84.2163 12.8038 84.2163 13.9452V17.6372H83.1897V16.8778H83.1054C82.9341 17.1502 82.6936 17.3723 82.4085 17.5213C82.1233 17.6704 81.8037 17.7411 81.4823 17.7262C81.2555 17.7498 81.0262 17.7256 80.8093 17.6552C80.5924 17.5847 80.3926 17.4696 80.2229 17.3173C80.0532 17.1649 79.9174 16.9787 79.824 16.7706C79.7307 16.5625 79.682 16.3371 79.6812 16.1091ZM83.1546 15.6474V15.1956L81.8351 15.28C81.0909 15.3298 80.7534 15.5829 80.7534 16.0593C80.7534 16.5456 81.1753 16.8286 81.7554 16.8286C81.9254 16.8458 82.0971 16.8286 82.2603 16.7781C82.4235 16.7276 82.5749 16.6448 82.7054 16.5346C82.836 16.4244 82.943 16.289 83.0202 16.1366C83.0973 15.9842 83.143 15.8178 83.1546 15.6474Z" fill="white"/>
<path d="M85.6179 14.9333C85.6179 13.2259 86.4957 12.1443 87.8609 12.1443C88.1986 12.1287 88.5337 12.2096 88.8272 12.3775C89.1206 12.5453 89.3602 12.7933 89.5179 13.0923H89.5976V10.1245H90.664V17.6374H89.6421V16.7837H89.5578C89.3878 17.0807 89.1399 17.3255 88.8408 17.4917C88.5417 17.6579 88.2028 17.7391 87.8609 17.7265C86.4863 17.7265 85.6179 16.6448 85.6179 14.9333ZM86.7195 14.9333C86.7195 16.0794 87.2598 16.7691 88.1633 16.7691C89.0621 16.7691 89.6176 16.0695 89.6176 14.938C89.6176 13.8118 89.0562 13.1023 88.1633 13.1023C87.2656 13.1023 86.7195 13.7966 86.7195 14.9333H86.7195Z" fill="white"/>
<path d="M95.076 14.9335C95.042 14.5784 95.0827 14.2202 95.1953 13.8817C95.3079 13.5432 95.49 13.232 95.7299 12.968C95.9699 12.704 96.2623 12.4931 96.5885 12.3488C96.9147 12.2044 97.2675 12.1299 97.6243 12.1299C97.981 12.1299 98.3338 12.2044 98.66 12.3488C98.9862 12.4931 99.2787 12.704 99.5186 12.968C99.7585 13.232 99.9406 13.5432 100.053 13.8817C100.166 14.2202 100.206 14.5784 100.173 14.9335C100.207 15.289 100.167 15.6478 100.055 15.9868C99.9424 16.3258 99.7604 16.6376 99.5204 16.9021C99.2804 17.1666 98.9877 17.378 98.6612 17.5226C98.3346 17.6673 97.9814 17.742 97.6243 17.742C97.2671 17.742 96.9139 17.6673 96.5874 17.5226C96.2608 17.378 95.9681 17.1666 95.7281 16.9021C95.4882 16.6376 95.3062 16.3258 95.1938 15.9868C95.0815 15.6478 95.0414 15.289 95.076 14.9335ZM99.0756 14.9335C99.0756 13.7623 98.5494 13.0773 97.626 13.0773C96.6991 13.0773 96.1776 13.7623 96.1776 14.9335C96.1776 16.1142 96.6991 16.7939 97.626 16.7939C98.5495 16.7939 99.0756 16.1095 99.0756 14.9335Z" fill="white"/>
<path d="M101.604 12.2341H102.63V13.0925H102.71C102.845 12.7842 103.073 12.5258 103.362 12.3532C103.651 12.1806 103.987 12.1026 104.322 12.1298C104.585 12.1101 104.849 12.1497 105.095 12.2458C105.34 12.3419 105.561 12.4921 105.741 12.6851C105.92 12.8781 106.054 13.109 106.132 13.3608C106.211 13.6126 106.231 13.8788 106.193 14.1396V17.6376H105.126V14.4074C105.126 13.539 104.749 13.1072 103.96 13.1072C103.782 13.0989 103.603 13.1293 103.438 13.1962C103.272 13.2632 103.123 13.3653 103 13.4953C102.878 13.6254 102.785 13.7804 102.728 13.9498C102.671 14.1191 102.651 14.2988 102.67 14.4765V17.6377H101.604V12.2341Z" fill="white"/>
<path d="M112.218 10.8887V12.2586H113.389V13.1568H112.218V15.9354C112.218 16.5014 112.452 16.7492 112.982 16.7492C113.118 16.7488 113.254 16.7406 113.389 16.7246V17.6129C113.198 17.6471 113.004 17.6654 112.809 17.6674C111.623 17.6674 111.151 17.2502 111.151 16.2084V13.1568H110.293V12.2585H111.151V10.8887H112.218Z" fill="white"/>
<path d="M114.846 10.1245H115.903V13.1023H115.987C116.129 12.7911 116.363 12.5312 116.658 12.3579C116.953 12.1847 117.294 12.1066 117.635 12.1343C117.896 12.1201 118.158 12.1637 118.4 12.2622C118.643 12.3606 118.861 12.5114 119.039 12.7038C119.217 12.8962 119.35 13.1255 119.429 13.3753C119.508 13.625 119.531 13.8891 119.496 14.1487V17.6374H118.428V14.4118C118.428 13.5487 118.026 13.1116 117.273 13.1116C117.089 13.0966 116.905 13.1218 116.733 13.1854C116.56 13.2491 116.403 13.3497 116.274 13.4802C116.144 13.6107 116.045 13.7679 115.982 13.9409C115.92 14.1138 115.896 14.2984 115.912 14.4815V17.6374H114.846L114.846 10.1245Z" fill="white"/>
<path d="M125.714 16.1783C125.569 16.6722 125.255 17.0993 124.827 17.3851C124.399 17.6709 123.884 17.7971 123.372 17.7416C123.016 17.751 122.662 17.6828 122.335 17.5418C122.008 17.4007 121.716 17.1902 121.478 16.9249C121.241 16.6595 121.064 16.3456 120.96 16.005C120.856 15.6645 120.827 15.3053 120.876 14.9525C120.829 14.5987 120.858 14.2388 120.962 13.8971C121.065 13.5555 121.241 13.2402 121.478 12.9725C121.714 12.7048 122.005 12.491 122.331 12.3456C122.657 12.2001 123.01 12.1264 123.367 12.1295C124.871 12.1295 125.778 13.1567 125.778 14.8535V15.2256H121.962V15.2854C121.946 15.4836 121.971 15.6832 122.036 15.8713C122.101 16.0594 122.204 16.2319 122.34 16.3776C122.475 16.5234 122.639 16.6392 122.822 16.7177C123.005 16.7962 123.202 16.8356 123.401 16.8334C123.657 16.864 123.915 16.818 124.144 16.7014C124.373 16.5847 124.562 16.4027 124.687 16.1783L125.714 16.1783ZM121.962 14.4369H124.692C124.705 14.2556 124.68 14.0734 124.619 13.9021C124.558 13.7309 124.462 13.5743 124.337 13.4425C124.211 13.3106 124.06 13.2065 123.892 13.1367C123.724 13.0668 123.543 13.0329 123.362 13.0371C123.177 13.0348 122.994 13.0694 122.823 13.139C122.652 13.2085 122.497 13.3115 122.367 13.442C122.236 13.5724 122.133 13.7277 122.064 13.8985C121.995 14.0694 121.96 14.2525 121.962 14.4369H121.962Z" fill="white"/>
</svg>
