<svg width="573" height="354" viewBox="0 0 573 354" fill="none" xmlns="http://www.w3.org/2000/svg">
<circle opacity="0.25" cx="10.6631" cy="10.6631" r="10.6631" transform="matrix(0.965926 0.258819 0.258819 -0.965926 268.639 358.657)" fill="white"/>
<circle opacity="0.25" cx="13.3284" cy="13.3284" r="13.3284" transform="matrix(0.965926 0.258819 0.258819 -0.965926 307.927 329.445)" fill="white"/>
<circle opacity="0.5" cx="14.3947" cy="14.3947" r="14.3947" transform="matrix(0.965926 0.258819 0.258819 -0.965926 338.61 373.542)" fill="white"/>
<circle opacity="0.25" cx="13.3284" cy="13.3284" r="13.3284" transform="matrix(0.965926 0.258819 0.258819 -0.965926 350.617 297.833)" fill="white"/>
<circle opacity="0.5" cx="13.3284" cy="13.3284" r="13.3284" transform="matrix(0.965926 0.258819 0.258819 -0.965926 384.152 341.59)" fill="white"/>
<circle opacity="0.5" cx="15.6898" cy="15.6898" r="15.6898" transform="matrix(0.965926 0.258819 0.258819 -0.965926 423.482 312.213)" fill="white"/>
<circle opacity="0.25" cx="16.8896" cy="16.8896" r="16.8896" transform="matrix(0.965926 0.258819 0.258819 -0.965926 517.852 176.4)" fill="white"/>
<circle opacity="0.25" cx="16.8896" cy="16.8896" r="16.8896" transform="matrix(0.965926 0.258819 0.258819 -0.965926 562.566 144.62)" fill="white"/>
<circle opacity="0.75" cx="17.6822" cy="17.6822" r="17.6822" transform="matrix(0.965926 0.258819 0.258819 -0.965926 453.47 357.879)" fill="white"/>
<circle opacity="0.75" cx="21.8585" cy="21.8585" r="21.8585" transform="matrix(0.965926 0.258819 0.258819 -0.965926 491.563 330.455)" fill="white"/>
<circle opacity="0.5" cx="24.3972" cy="24.3972" r="24.3972" transform="matrix(0.965926 0.258819 0.258819 -0.965926 540.621 221.92)" fill="white"/>
<circle opacity="0.75" cx="24.3972" cy="24.3972" r="24.3972" transform="matrix(0.965926 0.258819 0.258819 -0.965926 532.297 300.019)" fill="white"/>
<circle cx="24.3972" cy="24.3972" r="24.3972" transform="matrix(0.965926 0.258819 0.258819 -0.965926 536.924 377.006)" fill="white"/>
<circle opacity="0.5" cx="19.1686" cy="19.1686" r="19.1686" transform="matrix(0.965926 0.258819 0.258819 -0.965926 461.484 283.78)" fill="white"/>
<circle opacity="0.5" cx="21.2005" cy="21.2005" r="21.2005" transform="matrix(0.965926 0.258819 0.258819 -0.965926 502.568 254.082)" fill="white"/>
<circle opacity="0.25" cx="14.9279" cy="14.9279" r="14.9279" transform="matrix(0.965926 0.258819 0.258819 -0.965926 391.725 268.004)" fill="white"/>
<circle opacity="0.25" cx="19.726" cy="19.726" r="19.726" transform="matrix(0.965926 0.258819 0.258819 -0.965926 429.569 240.061)" fill="white"/>
<circle opacity="0.25" cx="17.8599" cy="17.8599" r="17.8599" transform="matrix(0.965926 0.258819 0.258819 -0.965926 475.111 208.108)" fill="white"/>
</svg>
