<svg width="128" height="128" viewBox="0 0 128 128" fill="none" xmlns="http://www.w3.org/2000/svg">
<path d="M2.10284e-07 20.0408C2.10284e-07 8.9726 8.97257 0 20.0408 0L107.959 0C119.027 0 128 8.97257 128 20.0408L128 107.959C128 119.027 119.027 128 107.959 128L20.0408 128C8.9726 128 2.10284e-07 119.027 2.10284e-07 107.959L2.10284e-07 20.0408Z" fill="white"/>
<path d="M18.2674 15.3169L15.3169 15.3169L15.3169 18.2674H18.2674V15.3169Z" fill="black"/>
<path d="M21.2178 15.3169L18.2674 15.3169V18.2674L21.2178 18.2674V15.3169Z" fill="black"/>
<path d="M24.1683 15.3169L21.2178 15.3169V18.2674L24.1683 18.2674V15.3169Z" fill="black"/>
<path d="M27.1188 15.3169L24.1683 15.3169V18.2674H27.1188V15.3169Z" fill="black"/>
<path d="M30.0692 15.3169L27.1188 15.3169V18.2674L30.0692 18.2674V15.3169Z" fill="black"/>
<path d="M33.0197 15.3169L30.0692 15.3169V18.2674H33.0197V15.3169Z" fill="black"/>
<path d="M35.9702 15.3169L33.0197 15.3169V18.2674L35.9702 18.2674V15.3169Z" fill="black"/>
<path d="M41.8711 15.3169L38.9206 15.3169V18.2674L41.8711 18.2674V15.3169Z" fill="black"/>
<path d="M56.6234 15.3169L53.673 15.3169V18.2674H56.6234V15.3169Z" fill="black"/>
<path d="M62.5244 15.3169L59.5739 15.3169V18.2674H62.5244V15.3169Z" fill="black"/>
<path d="M65.4748 15.3169L62.5244 15.3169V18.2674L65.4748 18.2674V15.3169Z" fill="black"/>
<path d="M71.3758 15.3169L68.4253 15.3169V18.2674L71.3758 18.2674V15.3169Z" fill="black"/>
<path d="M77.2767 15.3169L74.3262 15.3169V18.2674L77.2767 18.2674V15.3169Z" fill="black"/>
<path d="M80.2272 15.3169L77.2767 15.3169V18.2674L80.2272 18.2674V15.3169Z" fill="black"/>
<path d="M83.1776 15.3169L80.2272 15.3169V18.2674H83.1776V15.3169Z" fill="black"/>
<path d="M86.1281 15.3169L83.1776 15.3169V18.2674H86.1281V15.3169Z" fill="black"/>
<path d="M89.0786 15.3169L86.1281 15.3169V18.2674L89.0786 18.2674V15.3169Z" fill="black"/>
<path d="M94.9795 15.3169L92.029 15.3169V18.2674H94.9795V15.3169Z" fill="black"/>
<path d="M97.93 15.3169L94.9795 15.3169V18.2674L97.93 18.2674V15.3169Z" fill="black"/>
<path d="M100.88 15.3169L97.93 15.3169V18.2674H100.88V15.3169Z" fill="black"/>
<path d="M103.831 15.3169L100.88 15.3169V18.2674L103.831 18.2674V15.3169Z" fill="black"/>
<path d="M106.781 15.3169L103.831 15.3169V18.2674H106.781V15.3169Z" fill="black"/>
<path d="M109.732 15.3169L106.781 15.3169V18.2674L109.732 18.2674V15.3169Z" fill="black"/>
<path d="M112.682 15.3169L109.732 15.3169V18.2674H112.682V15.3169Z" fill="black"/>
<path d="M18.2674 18.2674H15.3169L15.3169 21.2178H18.2674L18.2674 18.2674Z" fill="black"/>
<path d="M35.9702 18.2674L33.0197 18.2674V21.2178L35.9702 21.2178V18.2674Z" fill="black"/>
<path d="M44.8216 18.2674H41.8711V21.2178H44.8216V18.2674Z" fill="black"/>
<path d="M53.673 18.2674L50.7225 18.2674L50.7225 21.2178L53.673 21.2178L53.673 18.2674Z" fill="black"/>
<path d="M56.6234 18.2674H53.673L53.673 21.2178H56.6234L56.6234 18.2674Z" fill="black"/>
<path d="M59.5739 18.2674L56.6234 18.2674L56.6234 21.2178L59.5739 21.2178L59.5739 18.2674Z" fill="black"/>
<path d="M71.3758 18.2674L68.4253 18.2674V21.2178L71.3758 21.2178V18.2674Z" fill="black"/>
<path d="M74.3262 18.2674H71.3758V21.2178H74.3262V18.2674Z" fill="black"/>
<path d="M80.2272 18.2674L77.2767 18.2674V21.2178L80.2272 21.2178V18.2674Z" fill="black"/>
<path d="M94.9795 18.2674H92.029V21.2178H94.9795V18.2674Z" fill="black"/>
<path d="M112.682 18.2674H109.732V21.2178H112.682V18.2674Z" fill="black"/>
<path d="M18.2674 21.2178H15.3169L15.3169 24.1683H18.2674L18.2674 21.2178Z" fill="black"/>
<path d="M24.1683 21.2178L21.2178 21.2178L21.2178 24.1683L24.1683 24.1683L24.1683 21.2178Z" fill="black"/>
<path d="M27.1188 21.2178H24.1683L24.1683 24.1683H27.1188L27.1188 21.2178Z" fill="black"/>
<path d="M30.0692 21.2178H27.1188L27.1188 24.1683H30.0692L30.0692 21.2178Z" fill="black"/>
<path d="M35.9702 21.2178L33.0197 21.2178L33.0197 24.1683L35.9702 24.1683L35.9702 21.2178Z" fill="black"/>
<path d="M41.8711 21.2178L38.9206 21.2178L38.9206 24.1683H41.8711L41.8711 21.2178Z" fill="black"/>
<path d="M50.7225 21.2178H47.772V24.1683H50.7225V21.2178Z" fill="black"/>
<path d="M65.4748 21.2178L62.5244 21.2178V24.1683L65.4748 24.1683V21.2178Z" fill="black"/>
<path d="M68.4253 21.2178H65.4748V24.1683L68.4253 24.1683V21.2178Z" fill="black"/>
<path d="M74.3262 21.2178H71.3758L71.3758 24.1683H74.3262V21.2178Z" fill="black"/>
<path d="M80.2272 21.2178L77.2767 21.2178V24.1683L80.2272 24.1683V21.2178Z" fill="black"/>
<path d="M83.1776 21.2178H80.2272V24.1683H83.1776V21.2178Z" fill="black"/>
<path d="M86.1281 21.2178H83.1776V24.1683H86.1281V21.2178Z" fill="black"/>
<path d="M89.0786 21.2178L86.1281 21.2178V24.1683L89.0786 24.1683V21.2178Z" fill="black"/>
<path d="M94.9795 21.2178H92.029V24.1683H94.9795V21.2178Z" fill="black"/>
<path d="M100.88 21.2178L97.93 21.2178V24.1683L100.88 24.1683V21.2178Z" fill="black"/>
<path d="M103.831 21.2178L100.88 21.2178V24.1683L103.831 24.1683V21.2178Z" fill="black"/>
<path d="M106.781 21.2178H103.831V24.1683H106.781V21.2178Z" fill="black"/>
<path d="M112.682 21.2178H109.732V24.1683L112.682 24.1683V21.2178Z" fill="black"/>
<path d="M18.2674 24.1683H15.3169L15.3169 27.1188H18.2674V24.1683Z" fill="black"/>
<path d="M24.1683 24.1683L21.2178 24.1683V27.1188L24.1683 27.1188V24.1683Z" fill="black"/>
<path d="M27.1188 24.1683H24.1683V27.1188H27.1188V24.1683Z" fill="black"/>
<path d="M30.0692 24.1683H27.1188V27.1188H30.0692V24.1683Z" fill="black"/>
<path d="M35.9702 24.1683L33.0197 24.1683V27.1188L35.9702 27.1188V24.1683Z" fill="black"/>
<path d="M41.8711 24.1683H38.9206V27.1188H41.8711V24.1683Z" fill="black"/>
<path d="M44.8216 24.1683L41.8711 24.1683V27.1188L44.8216 27.1188V24.1683Z" fill="black"/>
<path d="M50.7225 24.1683H47.772V27.1188H50.7225V24.1683Z" fill="black"/>
<path d="M53.673 24.1683L50.7225 24.1683V27.1188L53.673 27.1188V24.1683Z" fill="black"/>
<path d="M59.5739 24.1683H56.6234V27.1188H59.5739V24.1683Z" fill="black"/>
<path d="M65.4748 24.1683L62.5244 24.1683V27.1188L65.4748 27.1188V24.1683Z" fill="black"/>
<path d="M68.4253 24.1683L65.4748 24.1683V27.1188L68.4253 27.1188V24.1683Z" fill="black"/>
<path d="M71.3758 24.1683H68.4253V27.1188H71.3758L71.3758 24.1683Z" fill="black"/>
<path d="M74.3262 24.1683H71.3758L71.3758 27.1188H74.3262V24.1683Z" fill="black"/>
<path d="M80.2272 24.1683L77.2767 24.1683V27.1188L80.2272 27.1188L80.2272 24.1683Z" fill="black"/>
<path d="M86.1281 24.1683H83.1776L83.1776 27.1188H86.1281L86.1281 24.1683Z" fill="black"/>
<path d="M89.0786 24.1683L86.1281 24.1683L86.1281 27.1188L89.0786 27.1188L89.0786 24.1683Z" fill="black"/>
<path d="M94.9795 24.1683H92.029L92.029 27.1188H94.9795L94.9795 24.1683Z" fill="black"/>
<path d="M100.88 24.1683L97.93 24.1683L97.93 27.1188L100.88 27.1188L100.88 24.1683Z" fill="black"/>
<path d="M103.831 24.1683L100.88 24.1683L100.88 27.1188L103.831 27.1188L103.831 24.1683Z" fill="black"/>
<path d="M106.781 24.1683H103.831L103.831 27.1188H106.781L106.781 24.1683Z" fill="black"/>
<path d="M112.682 24.1683L109.732 24.1683L109.732 27.1188L112.682 27.1188L112.682 24.1683Z" fill="black"/>
<path d="M18.2674 27.1188H15.3169L15.3169 30.0692H18.2674L18.2674 27.1188Z" fill="black"/>
<path d="M24.1683 27.1188L21.2178 27.1188V30.0692L24.1683 30.0692V27.1188Z" fill="black"/>
<path d="M27.1188 27.1188H24.1683V30.0692H27.1188V27.1188Z" fill="black"/>
<path d="M30.0692 27.1188H27.1188V30.0692H30.0692V27.1188Z" fill="black"/>
<path d="M35.9702 27.1188L33.0197 27.1188L33.0197 30.0692L35.9702 30.0692L35.9702 27.1188Z" fill="black"/>
<path d="M41.8711 27.1188H38.9206L38.9206 30.0692H41.8711L41.8711 27.1188Z" fill="black"/>
<path d="M47.772 27.1188L44.8216 27.1188L44.8216 30.0692L47.772 30.0692V27.1188Z" fill="black"/>
<path d="M53.673 27.1188L50.7225 27.1188V30.0692L53.673 30.0692V27.1188Z" fill="black"/>
<path d="M56.6234 27.1188L53.673 27.1188V30.0692L56.6234 30.0692V27.1188Z" fill="black"/>
<path d="M62.5244 27.1188H59.5739V30.0692H62.5244V27.1188Z" fill="black"/>
<path d="M71.3758 27.1188H68.4253V30.0692H71.3758V27.1188Z" fill="black"/>
<path d="M74.3262 27.1188H71.3758V30.0692H74.3262V27.1188Z" fill="black"/>
<path d="M77.2767 27.1188L74.3262 27.1188V30.0692L77.2767 30.0692V27.1188Z" fill="black"/>
<path d="M89.0786 27.1188L86.1281 27.1188V30.0692L89.0786 30.0692V27.1188Z" fill="black"/>
<path d="M94.9795 27.1188H92.029V30.0692H94.9795V27.1188Z" fill="black"/>
<path d="M100.88 27.1188L97.93 27.1188V30.0692L100.88 30.0692V27.1188Z" fill="black"/>
<path d="M103.831 27.1188L100.88 27.1188V30.0692L103.831 30.0692V27.1188Z" fill="black"/>
<path d="M106.781 27.1188H103.831V30.0692H106.781V27.1188Z" fill="black"/>
<path d="M112.682 27.1188L109.732 27.1188V30.0692L112.682 30.0692V27.1188Z" fill="black"/>
<path d="M18.2674 30.0692H15.3169L15.3169 33.0197H18.2674V30.0692Z" fill="black"/>
<path d="M35.9702 30.0692L33.0197 30.0692V33.0197H35.9702V30.0692Z" fill="black"/>
<path d="M41.8711 30.0692H38.9206V33.0197H41.8711V30.0692Z" fill="black"/>
<path d="M47.772 30.0692L44.8216 30.0692V33.0197L47.772 33.0197L47.772 30.0692Z" fill="black"/>
<path d="M53.673 30.0692L50.7225 30.0692L50.7225 33.0197L53.673 33.0197L53.673 30.0692Z" fill="black"/>
<path d="M62.5244 30.0692H59.5739L59.5739 33.0197H62.5244L62.5244 30.0692Z" fill="black"/>
<path d="M65.4748 30.0692L62.5244 30.0692L62.5244 33.0197H65.4748L65.4748 30.0692Z" fill="black"/>
<path d="M74.3262 30.0692H71.3758L71.3758 33.0197H74.3262L74.3262 30.0692Z" fill="black"/>
<path d="M77.2767 30.0692L74.3262 30.0692L74.3262 33.0197L77.2767 33.0197L77.2767 30.0692Z" fill="black"/>
<path d="M94.9795 30.0692H92.029V33.0197H94.9795V30.0692Z" fill="black"/>
<path d="M112.682 30.0692L109.732 30.0692V33.0197H112.682V30.0692Z" fill="black"/>
<path d="M18.2674 33.0197H15.3169L15.3169 35.9702H18.2674L18.2674 33.0197Z" fill="black"/>
<path d="M21.2178 33.0197H18.2674L18.2674 35.9702H21.2178L21.2178 33.0197Z" fill="black"/>
<path d="M24.1683 33.0197L21.2178 33.0197L21.2178 35.9702L24.1683 35.9702L24.1683 33.0197Z" fill="black"/>
<path d="M27.1188 33.0197H24.1683L24.1683 35.9702H27.1188L27.1188 33.0197Z" fill="black"/>
<path d="M30.0692 33.0197L27.1188 33.0197L27.1188 35.9702L30.0692 35.9702L30.0692 33.0197Z" fill="black"/>
<path d="M33.0197 33.0197H30.0692L30.0692 35.9702H33.0197V33.0197Z" fill="black"/>
<path d="M35.9702 33.0197H33.0197V35.9702H35.9702V33.0197Z" fill="black"/>
<path d="M41.8711 33.0197H38.9206V35.9702H41.8711V33.0197Z" fill="black"/>
<path d="M47.772 33.0197L44.8216 33.0197V35.9702L47.772 35.9702V33.0197Z" fill="black"/>
<path d="M53.673 33.0197L50.7225 33.0197V35.9702L53.673 35.9702V33.0197Z" fill="black"/>
<path d="M59.5739 33.0197H56.6234V35.9702H59.5739V33.0197Z" fill="black"/>
<path d="M65.4748 33.0197H62.5244V35.9702H65.4748V33.0197Z" fill="black"/>
<path d="M71.3758 33.0197L68.4253 33.0197V35.9702L71.3758 35.9702L71.3758 33.0197Z" fill="black"/>
<path d="M77.2767 33.0197L74.3262 33.0197V35.9702L77.2767 35.9702V33.0197Z" fill="black"/>
<path d="M83.1776 33.0197H80.2272V35.9702H83.1776V33.0197Z" fill="black"/>
<path d="M89.0786 33.0197H86.1281V35.9702H89.0786V33.0197Z" fill="black"/>
<path d="M94.9795 33.0197H92.029V35.9702H94.9795V33.0197Z" fill="black"/>
<path d="M97.93 33.0197L94.9795 33.0197V35.9702L97.93 35.9702V33.0197Z" fill="black"/>
<path d="M100.88 33.0197H97.93V35.9702H100.88V33.0197Z" fill="black"/>
<path d="M103.831 33.0197H100.88V35.9702H103.831V33.0197Z" fill="black"/>
<path d="M106.781 33.0197H103.831V35.9702H106.781V33.0197Z" fill="black"/>
<path d="M109.732 33.0197H106.781V35.9702H109.732V33.0197Z" fill="black"/>
<path d="M112.682 33.0197H109.732V35.9702H112.682V33.0197Z" fill="black"/>
<path d="M44.8216 35.9702H41.8711V38.9206H44.8216V35.9702Z" fill="black"/>
<path d="M50.7225 35.9702H47.772V38.9206H50.7225V35.9702Z" fill="black"/>
<path d="M59.5739 35.9702H56.6234V38.9206H59.5739V35.9702Z" fill="black"/>
<path d="M62.5244 35.9702H59.5739V38.9206H62.5244V35.9702Z" fill="black"/>
<path d="M65.4748 35.9702H62.5244V38.9206H65.4748V35.9702Z" fill="black"/>
<path d="M71.3758 35.9702L68.4253 35.9702V38.9206L71.3758 38.9206V35.9702Z" fill="black"/>
<path d="M80.2272 35.9702H77.2767V38.9206H80.2272V35.9702Z" fill="black"/>
<path d="M89.0786 35.9702H86.1281V38.9206H89.0786V35.9702Z" fill="black"/>
<path d="M24.1683 38.9206L21.2178 38.9206L21.2178 41.8711L24.1683 41.8711V38.9206Z" fill="black"/>
<path d="M27.1188 38.9206H24.1683V41.8711H27.1188V38.9206Z" fill="black"/>
<path d="M30.0692 38.9206L27.1188 38.9206V41.8711L30.0692 41.8711V38.9206Z" fill="black"/>
<path d="M33.0197 38.9206H30.0692V41.8711H33.0197V38.9206Z" fill="black"/>
<path d="M35.9702 38.9206H33.0197V41.8711H35.9702V38.9206Z" fill="black"/>
<path d="M38.9206 38.9206H35.9702V41.8711H38.9206V38.9206Z" fill="black"/>
<path d="M47.772 38.9206L44.8216 38.9206V41.8711L47.772 41.8711V38.9206Z" fill="black"/>
<path d="M50.7225 38.9206H47.772V41.8711H50.7225V38.9206Z" fill="black"/>
<path d="M56.6234 38.9206H53.673V41.8711H56.6234V38.9206Z" fill="black"/>
<path d="M59.5739 38.9206H56.6234V41.8711H59.5739V38.9206Z" fill="black"/>
<path d="M65.4748 38.9206H62.5244V41.8711H65.4748V38.9206Z" fill="black"/>
<path d="M68.4253 38.9206H65.4748V41.8711H68.4253V38.9206Z" fill="black"/>
<path d="M71.3758 38.9206L68.4253 38.9206V41.8711L71.3758 41.8711V38.9206Z" fill="black"/>
<path d="M74.3262 38.9206H71.3758V41.8711H74.3262V38.9206Z" fill="black"/>
<path d="M80.2272 38.9206H77.2767V41.8711H80.2272V38.9206Z" fill="black"/>
<path d="M83.1776 38.9206H80.2272V41.8711H83.1776V38.9206Z" fill="black"/>
<path d="M92.029 38.9206L89.0786 38.9206V41.8711L92.029 41.8711V38.9206Z" fill="black"/>
<path d="M97.93 38.9206L94.9795 38.9206V41.8711L97.93 41.8711V38.9206Z" fill="black"/>
<path d="M100.88 38.9206H97.93V41.8711H100.88V38.9206Z" fill="black"/>
<path d="M103.831 38.9206H100.88V41.8711H103.831V38.9206Z" fill="black"/>
<path d="M106.781 38.9206H103.831V41.8711H106.781V38.9206Z" fill="black"/>
<path d="M112.682 38.9206H109.732V41.8711H112.682V38.9206Z" fill="black"/>
<path d="M21.2178 41.8711H18.2674V44.8216H21.2178V41.8711Z" fill="black"/>
<path d="M24.1683 41.8711L21.2178 41.8711V44.8216L24.1683 44.8216L24.1683 41.8711Z" fill="black"/>
<path d="M33.0197 41.8711H30.0692L30.0692 44.8216H33.0197V41.8711Z" fill="black"/>
<path d="M41.8711 41.8711H38.9206V44.8216H41.8711V41.8711Z" fill="black"/>
<path d="M44.8216 41.8711H41.8711V44.8216H44.8216V41.8711Z" fill="black"/>
<path d="M47.772 41.8711L44.8216 41.8711V44.8216L47.772 44.8216L47.772 41.8711Z" fill="black"/>
<path d="M50.7225 41.8711H47.772L47.772 44.8216H50.7225L50.7225 41.8711Z" fill="black"/>
<path d="M56.6234 41.8711H53.673L53.673 44.8216H56.6234L56.6234 41.8711Z" fill="black"/>
<path d="M65.4748 41.8711H62.5244L62.5244 44.8216H65.4748L65.4748 41.8711Z" fill="black"/>
<path d="M71.3758 41.8711L68.4253 41.8711L68.4253 44.8216L71.3758 44.8216L71.3758 41.8711Z" fill="black"/>
<path d="M74.3262 41.8711H71.3758L71.3758 44.8216H74.3262L74.3262 41.8711Z" fill="black"/>
<path d="M80.2272 41.8711H77.2767L77.2767 44.8216H80.2272V41.8711Z" fill="black"/>
<path d="M83.1776 41.8711H80.2272V44.8216H83.1776V41.8711Z" fill="black"/>
<path d="M86.1281 41.8711H83.1776V44.8216H86.1281V41.8711Z" fill="black"/>
<path d="M94.9795 41.8711H92.029V44.8216H94.9795V41.8711Z" fill="black"/>
<path d="M97.93 41.8711L94.9795 41.8711V44.8216L97.93 44.8216V41.8711Z" fill="black"/>
<path d="M100.88 41.8711H97.93V44.8216H100.88V41.8711Z" fill="black"/>
<path d="M103.831 41.8711H100.88V44.8216H103.831V41.8711Z" fill="black"/>
<path d="M106.781 41.8711H103.831V44.8216H106.781V41.8711Z" fill="black"/>
<path d="M27.1188 44.8216H24.1683L24.1683 47.772H27.1188L27.1188 44.8216Z" fill="black"/>
<path d="M33.0197 44.8216H30.0692L30.0692 47.772L33.0197 47.772L33.0197 44.8216Z" fill="black"/>
<path d="M35.9702 44.8216H33.0197L33.0197 47.772H35.9702L35.9702 44.8216Z" fill="black"/>
<path d="M38.9206 44.8216H35.9702L35.9702 47.772H38.9206L38.9206 44.8216Z" fill="black"/>
<path d="M41.8711 44.8216H38.9206L38.9206 47.772H41.8711L41.8711 44.8216Z" fill="black"/>
<path d="M44.8216 44.8216H41.8711L41.8711 47.772L44.8216 47.772L44.8216 44.8216Z" fill="black"/>
<path d="M47.772 44.8216L44.8216 44.8216L44.8216 47.772H47.772V44.8216Z" fill="black"/>
<path d="M56.6234 44.8216H53.673V47.772L56.6234 47.772V44.8216Z" fill="black"/>
<path d="M62.5244 44.8216H59.5739V47.772H62.5244V44.8216Z" fill="black"/>
<path d="M68.4253 44.8216H65.4748V47.772L68.4253 47.772V44.8216Z" fill="black"/>
<path d="M74.3262 44.8216H71.3758L71.3758 47.772H74.3262V44.8216Z" fill="black"/>
<path d="M92.029 44.8216L89.0786 44.8216V47.772H92.029V44.8216Z" fill="black"/>
<path d="M109.732 44.8216H106.781V47.772H109.732V44.8216Z" fill="black"/>
<path d="M112.682 44.8216H109.732V47.772L112.682 47.772V44.8216Z" fill="black"/>
<path d="M18.2674 47.772H15.3169L15.3169 50.7225H18.2674V47.772Z" fill="black"/>
<path d="M24.1683 47.772H21.2178V50.7225H24.1683V47.772Z" fill="black"/>
<path d="M38.9206 47.772H35.9702V50.7225H38.9206V47.772Z" fill="black"/>
<path d="M53.673 47.772H50.7225V50.7225H53.673V47.772Z" fill="black"/>
<path d="M59.5739 47.772H56.6234V50.7225H59.5739V47.772Z" fill="black"/>
<path d="M62.5244 47.772H59.5739V50.7225H62.5244V47.772Z" fill="black"/>
<path d="M68.4253 47.772L65.4748 47.772V50.7225L68.4253 50.7225V47.772Z" fill="black"/>
<path d="M77.2767 47.772H74.3262V50.7225H77.2767V47.772Z" fill="black"/>
<path d="M80.2272 47.772L77.2767 47.772V50.7225L80.2272 50.7225L80.2272 47.772Z" fill="black"/>
<path d="M83.1776 47.772H80.2272L80.2272 50.7225H83.1776L83.1776 47.772Z" fill="black"/>
<path d="M86.1281 47.772H83.1776L83.1776 50.7225H86.1281L86.1281 47.772Z" fill="black"/>
<path d="M89.0786 47.772L86.1281 47.772L86.1281 50.7225L89.0786 50.7225L89.0786 47.772Z" fill="black"/>
<path d="M92.029 47.772H89.0786L89.0786 50.7225H92.029L92.029 47.772Z" fill="black"/>
<path d="M109.732 47.772H106.781L106.781 50.7225H109.732L109.732 47.772Z" fill="black"/>
<path d="M33.0197 50.7225L30.0692 50.7225L30.0692 53.673L33.0197 53.673L33.0197 50.7225Z" fill="black"/>
<path d="M35.9702 50.7225H33.0197L33.0197 53.673H35.9702L35.9702 50.7225Z" fill="black"/>
<path d="M38.9206 50.7225H35.9702L35.9702 53.673H38.9206L38.9206 50.7225Z" fill="black"/>
<path d="M41.8711 50.7225H38.9206L38.9206 53.673H41.8711L41.8711 50.7225Z" fill="black"/>
<path d="M44.8216 50.7225L41.8711 50.7225L41.8711 53.673L44.8216 53.673L44.8216 50.7225Z" fill="black"/>
<path d="M47.772 50.7225H44.8216L44.8216 53.673H47.772V50.7225Z" fill="black"/>
<path d="M53.673 50.7225H50.7225V53.673H53.673V50.7225Z" fill="black"/>
<path d="M59.5739 50.7225H56.6234V53.673H59.5739V50.7225Z" fill="black"/>
<path d="M62.5244 50.7225H59.5739V53.673H62.5244V50.7225Z" fill="black"/>
<path d="M71.3758 50.7225H68.4253V53.673H71.3758V50.7225Z" fill="black"/>
<path d="M77.2767 50.7225H74.3262V53.673H77.2767V50.7225Z" fill="black"/>
<path d="M83.1776 50.7225H80.2272V53.673H83.1776V50.7225Z" fill="black"/>
<path d="M89.0786 50.7225L86.1281 50.7225V53.673L89.0786 53.673V50.7225Z" fill="black"/>
<path d="M92.029 50.7225H89.0786V53.673H92.029V50.7225Z" fill="black"/>
<path d="M94.9795 50.7225H92.029V53.673H94.9795V50.7225Z" fill="black"/>
<path d="M97.93 50.7225H94.9795V53.673H97.93V50.7225Z" fill="black"/>
<path d="M100.88 50.7225L97.93 50.7225V53.673L100.88 53.673V50.7225Z" fill="black"/>
<path d="M106.781 50.7225H103.831V53.673H106.781V50.7225Z" fill="black"/>
<path d="M109.732 50.7225H106.781V53.673H109.732V50.7225Z" fill="black"/>
<path d="M112.682 50.7225L109.732 50.7225V53.673L112.682 53.673V50.7225Z" fill="black"/>
<path d="M18.2674 53.673H15.3169L15.3169 56.6234H18.2674V53.673Z" fill="black"/>
<path d="M21.2178 53.673L18.2674 53.673V56.6234L21.2178 56.6234V53.673Z" fill="black"/>
<path d="M24.1683 53.673H21.2178V56.6234H24.1683L24.1683 53.673Z" fill="black"/>
<path d="M41.8711 53.673H38.9206V56.6234H41.8711V53.673Z" fill="black"/>
<path d="M56.6234 53.673L53.673 53.673L53.673 56.6234L56.6234 56.6234L56.6234 53.673Z" fill="black"/>
<path d="M59.5739 53.673H56.6234L56.6234 56.6234H59.5739L59.5739 53.673Z" fill="black"/>
<path d="M62.5244 53.673H59.5739L59.5739 56.6234H62.5244L62.5244 53.673Z" fill="black"/>
<path d="M83.1776 53.673H80.2272V56.6234H83.1776V53.673Z" fill="black"/>
<path d="M86.1281 53.673H83.1776V56.6234H86.1281V53.673Z" fill="black"/>
<path d="M106.781 53.673H103.831V56.6234H106.781V53.673Z" fill="black"/>
<path d="M109.732 53.673H106.781V56.6234H109.732V53.673Z" fill="black"/>
<path d="M21.2178 56.6234L18.2674 56.6234L18.2674 59.5739L21.2178 59.5739L21.2178 56.6234Z" fill="black"/>
<path d="M27.1188 56.6234H24.1683V59.5739H27.1188V56.6234Z" fill="black"/>
<path d="M33.0197 56.6234L30.0692 56.6234V59.5739L33.0197 59.5739V56.6234Z" fill="black"/>
<path d="M35.9702 56.6234H33.0197V59.5739H35.9702V56.6234Z" fill="black"/>
<path d="M38.9206 56.6234H35.9702V59.5739H38.9206V56.6234Z" fill="black"/>
<path d="M50.7225 56.6234H47.772V59.5739H50.7225V56.6234Z" fill="black"/>
<path d="M56.6234 56.6234L53.673 56.6234V59.5739L56.6234 59.5739V56.6234Z" fill="black"/>
<path d="M59.5739 56.6234H56.6234V59.5739H59.5739V56.6234Z" fill="black"/>
<path d="M62.5244 56.6234H59.5739V59.5739H62.5244V56.6234Z" fill="black"/>
<path d="M68.4253 56.6234L65.4748 56.6234V59.5739L68.4253 59.5739V56.6234Z" fill="black"/>
<path d="M86.1281 56.6234H83.1776V59.5739H86.1281V56.6234Z" fill="black"/>
<path d="M94.9795 56.6234H92.029V59.5739H94.9795V56.6234Z" fill="black"/>
<path d="M100.88 56.6234L97.93 56.6234V59.5739L100.88 59.5739V56.6234Z" fill="black"/>
<path d="M103.831 56.6234H100.88V59.5739H103.831V56.6234Z" fill="black"/>
<path d="M106.781 56.6234H103.831V59.5739H106.781V56.6234Z" fill="black"/>
<path d="M112.682 56.6234L109.732 56.6234V59.5739L112.682 59.5739V56.6234Z" fill="black"/>
<path d="M21.2178 59.5739L18.2674 59.5739V62.5244L21.2178 62.5244V59.5739Z" fill="black"/>
<path d="M24.1683 59.5739H21.2178V62.5244H24.1683V59.5739Z" fill="black"/>
<path d="M30.0692 59.5739H27.1188V62.5244H30.0692V59.5739Z" fill="black"/>
<path d="M33.0197 59.5739L30.0692 59.5739V62.5244L33.0197 62.5244V59.5739Z" fill="black"/>
<path d="M38.9206 59.5739H35.9702V62.5244H38.9206V59.5739Z" fill="black"/>
<path d="M41.8711 59.5739H38.9206V62.5244H41.8711V59.5739Z" fill="black"/>
<path d="M47.772 59.5739H44.8216V62.5244H47.772V59.5739Z" fill="black"/>
<path d="M56.6234 59.5739L53.673 59.5739V62.5244L56.6234 62.5244V59.5739Z" fill="black"/>
<path d="M71.3758 59.5739H68.4253V62.5244H71.3758V59.5739Z" fill="black"/>
<path d="M80.2272 59.5739L77.2767 59.5739V62.5244L80.2272 62.5244V59.5739Z" fill="black"/>
<path d="M83.1776 59.5739H80.2272V62.5244H83.1776V59.5739Z" fill="black"/>
<path d="M86.1281 59.5739H83.1776V62.5244H86.1281V59.5739Z" fill="black"/>
<path d="M89.0786 59.5739L86.1281 59.5739V62.5244L89.0786 62.5244V59.5739Z" fill="black"/>
<path d="M94.9795 59.5739H92.029V62.5244H94.9795V59.5739Z" fill="black"/>
<path d="M103.831 59.5739H100.88V62.5244H103.831V59.5739Z" fill="black"/>
<path d="M18.2674 62.5244H15.3169L15.3169 65.4748H18.2674L18.2674 62.5244Z" fill="black"/>
<path d="M21.2178 62.5244L18.2674 62.5244L18.2674 65.4748H21.2178L21.2178 62.5244Z" fill="black"/>
<path d="M24.1683 62.5244H21.2178L21.2178 65.4748H24.1683L24.1683 62.5244Z" fill="black"/>
<path d="M27.1188 62.5244H24.1683L24.1683 65.4748H27.1188L27.1188 62.5244Z" fill="black"/>
<path d="M33.0197 62.5244L30.0692 62.5244L30.0692 65.4748L33.0197 65.4748V62.5244Z" fill="black"/>
<path d="M35.9702 62.5244H33.0197V65.4748H35.9702V62.5244Z" fill="black"/>
<path d="M44.8216 62.5244L41.8711 62.5244V65.4748L44.8216 65.4748V62.5244Z" fill="black"/>
<path d="M50.7225 62.5244H47.772V65.4748H50.7225V62.5244Z" fill="black"/>
<path d="M56.6234 62.5244L53.673 62.5244V65.4748H56.6234V62.5244Z" fill="black"/>
<path d="M62.5244 62.5244H59.5739V65.4748H62.5244V62.5244Z" fill="black"/>
<path d="M71.3758 62.5244H68.4253V65.4748H71.3758V62.5244Z" fill="black"/>
<path d="M77.2767 62.5244H74.3262V65.4748H77.2767V62.5244Z" fill="black"/>
<path d="M83.1776 62.5244H80.2272V65.4748H83.1776V62.5244Z" fill="black"/>
<path d="M92.029 62.5244H89.0786V65.4748H92.029V62.5244Z" fill="black"/>
<path d="M97.93 62.5244H94.9795V65.4748H97.93V62.5244Z" fill="black"/>
<path d="M103.831 62.5244H100.88V65.4748H103.831V62.5244Z" fill="black"/>
<path d="M109.732 62.5244H106.781V65.4748H109.732V62.5244Z" fill="black"/>
<path d="M18.2674 65.4748H15.3169L15.3169 68.4253H18.2674V65.4748Z" fill="black"/>
<path d="M21.2178 65.4748H18.2674V68.4253H21.2178V65.4748Z" fill="black"/>
<path d="M24.1683 65.4748H21.2178V68.4253H24.1683L24.1683 65.4748Z" fill="black"/>
<path d="M30.0692 65.4748H27.1188L27.1188 68.4253H30.0692L30.0692 65.4748Z" fill="black"/>
<path d="M33.0197 65.4748L30.0692 65.4748L30.0692 68.4253L33.0197 68.4253V65.4748Z" fill="black"/>
<path d="M41.8711 65.4748H38.9206V68.4253H41.8711V65.4748Z" fill="black"/>
<path d="M65.4748 65.4748H62.5244L62.5244 68.4253H65.4748V65.4748Z" fill="black"/>
<path d="M68.4253 65.4748H65.4748V68.4253H68.4253V65.4748Z" fill="black"/>
<path d="M71.3758 65.4748H68.4253V68.4253H71.3758V65.4748Z" fill="black"/>
<path d="M74.3262 65.4748H71.3758V68.4253H74.3262V65.4748Z" fill="black"/>
<path d="M80.2272 65.4748L77.2767 65.4748V68.4253L80.2272 68.4253V65.4748Z" fill="black"/>
<path d="M89.0786 65.4748L86.1281 65.4748V68.4253L89.0786 68.4253V65.4748Z" fill="black"/>
<path d="M103.831 65.4748H100.88V68.4253H103.831V65.4748Z" fill="black"/>
<path d="M112.682 65.4748H109.732V68.4253H112.682V65.4748Z" fill="black"/>
<path d="M18.2674 68.4253H15.3169L15.3169 71.3758H18.2674L18.2674 68.4253Z" fill="black"/>
<path d="M24.1683 68.4253H21.2178L21.2178 71.3758H24.1683V68.4253Z" fill="black"/>
<path d="M30.0692 68.4253H27.1188V71.3758H30.0692V68.4253Z" fill="black"/>
<path d="M35.9702 68.4253H33.0197L33.0197 71.3758H35.9702L35.9702 68.4253Z" fill="black"/>
<path d="M38.9206 68.4253H35.9702L35.9702 71.3758H38.9206L38.9206 68.4253Z" fill="black"/>
<path d="M44.8216 68.4253L41.8711 68.4253L41.8711 71.3758L44.8216 71.3758L44.8216 68.4253Z" fill="black"/>
<path d="M47.772 68.4253H44.8216L44.8216 71.3758H47.772V68.4253Z" fill="black"/>
<path d="M53.673 68.4253H50.7225V71.3758H53.673V68.4253Z" fill="black"/>
<path d="M68.4253 68.4253H65.4748V71.3758H68.4253V68.4253Z" fill="black"/>
<path d="M74.3262 68.4253H71.3758L71.3758 71.3758H74.3262V68.4253Z" fill="black"/>
<path d="M80.2272 68.4253L77.2767 68.4253V71.3758L80.2272 71.3758V68.4253Z" fill="black"/>
<path d="M86.1281 68.4253H83.1776V71.3758H86.1281V68.4253Z" fill="black"/>
<path d="M92.029 68.4253H89.0786V71.3758H92.029V68.4253Z" fill="black"/>
<path d="M94.9795 68.4253H92.029V71.3758H94.9795V68.4253Z" fill="black"/>
<path d="M100.88 68.4253H97.93V71.3758H100.88V68.4253Z" fill="black"/>
<path d="M106.781 68.4253H103.831V71.3758H106.781V68.4253Z" fill="black"/>
<path d="M18.2674 71.3758H15.3169L15.3169 74.3262H18.2674V71.3758Z" fill="black"/>
<path d="M24.1683 71.3758H21.2178V74.3262H24.1683V71.3758Z" fill="black"/>
<path d="M27.1188 71.3758H24.1683V74.3262H27.1188V71.3758Z" fill="black"/>
<path d="M44.8216 71.3758L41.8711 71.3758V74.3262L44.8216 74.3262V71.3758Z" fill="black"/>
<path d="M50.7225 71.3758H47.772V74.3262H50.7225V71.3758Z" fill="black"/>
<path d="M53.673 71.3758H50.7225V74.3262H53.673V71.3758Z" fill="black"/>
<path d="M59.5739 71.3758H56.6234V74.3262H59.5739V71.3758Z" fill="black"/>
<path d="M62.5244 71.3758H59.5739V74.3262H62.5244V71.3758Z" fill="black"/>
<path d="M65.4748 71.3758L62.5244 71.3758V74.3262H65.4748V71.3758Z" fill="black"/>
<path d="M68.4253 71.3758H65.4748V74.3262H68.4253V71.3758Z" fill="black"/>
<path d="M92.029 71.3758H89.0786L89.0786 74.3262H92.029L92.029 71.3758Z" fill="black"/>
<path d="M100.88 71.3758H97.93L97.93 74.3262H100.88L100.88 71.3758Z" fill="black"/>
<path d="M106.781 71.3758H103.831L103.831 74.3262H106.781L106.781 71.3758Z" fill="black"/>
<path d="M109.732 71.3758L106.781 71.3758L106.781 74.3262H109.732L109.732 71.3758Z" fill="black"/>
<path d="M112.682 71.3758H109.732L109.732 74.3262H112.682L112.682 71.3758Z" fill="black"/>
<path d="M18.2674 74.3262H15.3169L15.3169 77.2767H18.2674L18.2674 74.3262Z" fill="black"/>
<path d="M21.2178 74.3262H18.2674L18.2674 77.2767H21.2178L21.2178 74.3262Z" fill="black"/>
<path d="M24.1683 74.3262H21.2178L21.2178 77.2767H24.1683L24.1683 74.3262Z" fill="black"/>
<path d="M27.1188 74.3262H24.1683L24.1683 77.2767H27.1188L27.1188 74.3262Z" fill="black"/>
<path d="M33.0197 74.3262L30.0692 74.3262L30.0692 77.2767L33.0197 77.2767L33.0197 74.3262Z" fill="black"/>
<path d="M35.9702 74.3262H33.0197L33.0197 77.2767H35.9702L35.9702 74.3262Z" fill="black"/>
<path d="M44.8216 74.3262L41.8711 74.3262L41.8711 77.2767L44.8216 77.2767L44.8216 74.3262Z" fill="black"/>
<path d="M50.7225 74.3262H47.772V77.2767H50.7225V74.3262Z" fill="black"/>
<path d="M56.6234 74.3262H53.673V77.2767H56.6234V74.3262Z" fill="black"/>
<path d="M62.5244 74.3262H59.5739V77.2767H62.5244V74.3262Z" fill="black"/>
<path d="M74.3262 74.3262H71.3758V77.2767H74.3262V74.3262Z" fill="black"/>
<path d="M77.2767 74.3262H74.3262V77.2767H77.2767V74.3262Z" fill="black"/>
<path d="M83.1776 74.3262H80.2272V77.2767H83.1776V74.3262Z" fill="black"/>
<path d="M92.029 74.3262H89.0786V77.2767H92.029V74.3262Z" fill="black"/>
<path d="M97.93 74.3262H94.9795V77.2767H97.93V74.3262Z" fill="black"/>
<path d="M103.831 74.3262H100.88V77.2767H103.831V74.3262Z" fill="black"/>
<path d="M109.732 74.3262H106.781V77.2767H109.732V74.3262Z" fill="black"/>
<path d="M27.1188 77.2767H24.1683L24.1683 80.2272L27.1188 80.2272L27.1188 77.2767Z" fill="black"/>
<path d="M33.0197 77.2767L30.0692 77.2767L30.0692 80.2272H33.0197V77.2767Z" fill="black"/>
<path d="M38.9206 77.2767H35.9702V80.2272H38.9206V77.2767Z" fill="black"/>
<path d="M44.8216 77.2767L41.8711 77.2767V80.2272H44.8216V77.2767Z" fill="black"/>
<path d="M47.772 77.2767H44.8216V80.2272H47.772L47.772 77.2767Z" fill="black"/>
<path d="M50.7225 77.2767H47.772L47.772 80.2272L50.7225 80.2272L50.7225 77.2767Z" fill="black"/>
<path d="M53.673 77.2767H50.7225L50.7225 80.2272H53.673L53.673 77.2767Z" fill="black"/>
<path d="M56.6234 77.2767H53.673L53.673 80.2272H56.6234L56.6234 77.2767Z" fill="black"/>
<path d="M62.5244 77.2767H59.5739L59.5739 80.2272H62.5244L62.5244 77.2767Z" fill="black"/>
<path d="M77.2767 77.2767H74.3262L74.3262 80.2272H77.2767L77.2767 77.2767Z" fill="black"/>
<path d="M86.1281 77.2767H83.1776V80.2272H86.1281V77.2767Z" fill="black"/>
<path d="M92.029 77.2767H89.0786V80.2272H92.029V77.2767Z" fill="black"/>
<path d="M94.9795 77.2767H92.029V80.2272L94.9795 80.2272V77.2767Z" fill="black"/>
<path d="M97.93 77.2767H94.9795V80.2272H97.93V77.2767Z" fill="black"/>
<path d="M100.88 77.2767H97.93V80.2272H100.88V77.2767Z" fill="black"/>
<path d="M103.831 77.2767H100.88V80.2272H103.831V77.2767Z" fill="black"/>
<path d="M109.732 77.2767H106.781V80.2272H109.732V77.2767Z" fill="black"/>
<path d="M21.2178 80.2272H18.2674V83.1776H21.2178V80.2272Z" fill="black"/>
<path d="M27.1188 80.2272L24.1683 80.2272V83.1776L27.1188 83.1776V80.2272Z" fill="black"/>
<path d="M33.0197 80.2272H30.0692V83.1776H33.0197V80.2272Z" fill="black"/>
<path d="M35.9702 80.2272H33.0197V83.1776H35.9702V80.2272Z" fill="black"/>
<path d="M41.8711 80.2272H38.9206V83.1776H41.8711V80.2272Z" fill="black"/>
<path d="M44.8216 80.2272H41.8711V83.1776H44.8216V80.2272Z" fill="black"/>
<path d="M50.7225 80.2272L47.772 80.2272V83.1776L50.7225 83.1776V80.2272Z" fill="black"/>
<path d="M56.6234 80.2272H53.673V83.1776H56.6234V80.2272Z" fill="black"/>
<path d="M59.5739 80.2272H56.6234V83.1776H59.5739V80.2272Z" fill="black"/>
<path d="M62.5244 80.2272H59.5739V83.1776H62.5244V80.2272Z" fill="black"/>
<path d="M65.4748 80.2272H62.5244V83.1776H65.4748V80.2272Z" fill="black"/>
<path d="M71.3758 80.2272H68.4253V83.1776H71.3758V80.2272Z" fill="black"/>
<path d="M77.2767 80.2272H74.3262V83.1776H77.2767V80.2272Z" fill="black"/>
<path d="M83.1776 80.2272H80.2272V83.1776H83.1776V80.2272Z" fill="black"/>
<path d="M86.1281 80.2272H83.1776V83.1776H86.1281V80.2272Z" fill="black"/>
<path d="M89.0786 80.2272H86.1281V83.1776H89.0786V80.2272Z" fill="black"/>
<path d="M92.029 80.2272H89.0786V83.1776H92.029V80.2272Z" fill="black"/>
<path d="M97.93 80.2272H94.9795V83.1776H97.93V80.2272Z" fill="black"/>
<path d="M103.831 80.2272H100.88V83.1776H103.831V80.2272Z" fill="black"/>
<path d="M112.682 80.2272H109.732V83.1776H112.682V80.2272Z" fill="black"/>
<path d="M18.2674 83.1776H15.3169L15.3169 86.1281H18.2674V83.1776Z" fill="black"/>
<path d="M44.8216 83.1776H41.8711V86.1281H44.8216V83.1776Z" fill="black"/>
<path d="M56.6234 83.1776H53.673V86.1281H56.6234V83.1776Z" fill="black"/>
<path d="M68.4253 83.1776H65.4748V86.1281H68.4253V83.1776Z" fill="black"/>
<path d="M74.3262 83.1776L71.3758 83.1776L71.3758 86.1281L74.3262 86.1281V83.1776Z" fill="black"/>
<path d="M80.2272 83.1776H77.2767V86.1281H80.2272V83.1776Z" fill="black"/>
<path d="M89.0786 83.1776H86.1281V86.1281H89.0786V83.1776Z" fill="black"/>
<path d="M92.029 83.1776H89.0786V86.1281H92.029V83.1776Z" fill="black"/>
<path d="M94.9795 83.1776L92.029 83.1776V86.1281L94.9795 86.1281V83.1776Z" fill="black"/>
<path d="M97.93 83.1776H94.9795V86.1281H97.93V83.1776Z" fill="black"/>
<path d="M103.831 83.1776H100.88V86.1281H103.831V83.1776Z" fill="black"/>
<path d="M106.781 83.1776H103.831V86.1281H106.781V83.1776Z" fill="black"/>
<path d="M109.732 83.1776H106.781V86.1281H109.732V83.1776Z" fill="black"/>
<path d="M112.682 83.1776H109.732V86.1281H112.682V83.1776Z" fill="black"/>
<path d="M27.1188 86.1281L24.1683 86.1281L24.1683 89.0786L27.1188 89.0786L27.1188 86.1281Z" fill="black"/>
<path d="M30.0692 86.1281H27.1188L27.1188 89.0786H30.0692L30.0692 86.1281Z" fill="black"/>
<path d="M33.0197 86.1281H30.0692L30.0692 89.0786H33.0197V86.1281Z" fill="black"/>
<path d="M35.9702 86.1281H33.0197V89.0786H35.9702V86.1281Z" fill="black"/>
<path d="M41.8711 86.1281H38.9206V89.0786H41.8711V86.1281Z" fill="black"/>
<path d="M47.772 86.1281H44.8216V89.0786H47.772L47.772 86.1281Z" fill="black"/>
<path d="M56.6234 86.1281H53.673L53.673 89.0786H56.6234L56.6234 86.1281Z" fill="black"/>
<path d="M59.5739 86.1281H56.6234L56.6234 89.0786H59.5739L59.5739 86.1281Z" fill="black"/>
<path d="M62.5244 86.1281H59.5739L59.5739 89.0786H62.5244L62.5244 86.1281Z" fill="black"/>
<path d="M74.3262 86.1281L71.3758 86.1281L71.3758 89.0786L74.3262 89.0786L74.3262 86.1281Z" fill="black"/>
<path d="M80.2272 86.1281H77.2767L77.2767 89.0786H80.2272V86.1281Z" fill="black"/>
<path d="M83.1776 86.1281H80.2272V89.0786H83.1776V86.1281Z" fill="black"/>
<path d="M86.1281 86.1281H83.1776V89.0786H86.1281V86.1281Z" fill="black"/>
<path d="M89.0786 86.1281H86.1281V89.0786H89.0786V86.1281Z" fill="black"/>
<path d="M92.029 86.1281H89.0786V89.0786H92.029V86.1281Z" fill="black"/>
<path d="M94.9795 86.1281L92.029 86.1281V89.0786L94.9795 89.0786V86.1281Z" fill="black"/>
<path d="M97.93 86.1281H94.9795V89.0786H97.93V86.1281Z" fill="black"/>
<path d="M100.88 86.1281H97.93V89.0786H100.88V86.1281Z" fill="black"/>
<path d="M112.682 86.1281H109.732V89.0786H112.682V86.1281Z" fill="black"/>
<path d="M47.772 89.0786H44.8216L44.8216 92.029H47.772V89.0786Z" fill="black"/>
<path d="M50.7225 89.0786L47.772 89.0786V92.029L50.7225 92.029V89.0786Z" fill="black"/>
<path d="M56.6234 89.0786H53.673V92.029H56.6234V89.0786Z" fill="black"/>
<path d="M59.5739 89.0786H56.6234V92.029H59.5739V89.0786Z" fill="black"/>
<path d="M62.5244 89.0786H59.5739V92.029H62.5244V89.0786Z" fill="black"/>
<path d="M65.4748 89.0786H62.5244V92.029H65.4748V89.0786Z" fill="black"/>
<path d="M71.3758 89.0786H68.4253V92.029H71.3758L71.3758 89.0786Z" fill="black"/>
<path d="M80.2272 89.0786H77.2767V92.029H80.2272V89.0786Z" fill="black"/>
<path d="M89.0786 89.0786H86.1281V92.029H89.0786V89.0786Z" fill="black"/>
<path d="M100.88 89.0786H97.93V92.029H100.88V89.0786Z" fill="black"/>
<path d="M103.831 89.0786H100.88V92.029H103.831V89.0786Z" fill="black"/>
<path d="M109.732 89.0786H106.781V92.029H109.732V89.0786Z" fill="black"/>
<path d="M18.2674 92.029H15.3169L15.3169 94.9795H18.2674V92.029Z" fill="black"/>
<path d="M21.2178 92.029H18.2674V94.9795H21.2178V92.029Z" fill="black"/>
<path d="M24.1683 92.029H21.2178V94.9795H24.1683V92.029Z" fill="black"/>
<path d="M27.1188 92.029L24.1683 92.029V94.9795L27.1188 94.9795V92.029Z" fill="black"/>
<path d="M30.0692 92.029H27.1188V94.9795H30.0692V92.029Z" fill="black"/>
<path d="M33.0197 92.029H30.0692V94.9795H33.0197V92.029Z" fill="black"/>
<path d="M35.9702 92.029H33.0197V94.9795H35.9702V92.029Z" fill="black"/>
<path d="M41.8711 92.029H38.9206V94.9795H41.8711V92.029Z" fill="black"/>
<path d="M44.8216 92.029H41.8711V94.9795H44.8216V92.029Z" fill="black"/>
<path d="M47.772 92.029H44.8216V94.9795H47.772V92.029Z" fill="black"/>
<path d="M56.6234 92.029H53.673V94.9795H56.6234V92.029Z" fill="black"/>
<path d="M59.5739 92.029H56.6234V94.9795H59.5739V92.029Z" fill="black"/>
<path d="M62.5244 92.029H59.5739V94.9795H62.5244V92.029Z" fill="black"/>
<path d="M68.4253 92.029H65.4748V94.9795H68.4253V92.029Z" fill="black"/>
<path d="M74.3262 92.029L71.3758 92.029L71.3758 94.9795L74.3262 94.9795V92.029Z" fill="black"/>
<path d="M80.2272 92.029H77.2767V94.9795H80.2272L80.2272 92.029Z" fill="black"/>
<path d="M83.1776 92.029H80.2272L80.2272 94.9795H83.1776L83.1776 92.029Z" fill="black"/>
<path d="M89.0786 92.029H86.1281L86.1281 94.9795H89.0786L89.0786 92.029Z" fill="black"/>
<path d="M94.9795 92.029L92.029 92.029L92.029 94.9795L94.9795 94.9795L94.9795 92.029Z" fill="black"/>
<path d="M100.88 92.029H97.93L97.93 94.9795H100.88L100.88 92.029Z" fill="black"/>
<path d="M106.781 92.029H103.831L103.831 94.9795H106.781L106.781 92.029Z" fill="black"/>
<path d="M112.682 92.029H109.732L109.732 94.9795H112.682L112.682 92.029Z" fill="black"/>
<path d="M18.2674 94.9795H15.3169L15.3169 97.93H18.2674L18.2674 94.9795Z" fill="black"/>
<path d="M35.9702 94.9795H33.0197L33.0197 97.93H35.9702L35.9702 94.9795Z" fill="black"/>
<path d="M41.8711 94.9795H38.9206L38.9206 97.93H41.8711L41.8711 94.9795Z" fill="black"/>
<path d="M44.8216 94.9795H41.8711L41.8711 97.93H44.8216L44.8216 94.9795Z" fill="black"/>
<path d="M53.673 94.9795H50.7225V97.93H53.673V94.9795Z" fill="black"/>
<path d="M65.4748 94.9795H62.5244V97.93H65.4748V94.9795Z" fill="black"/>
<path d="M68.4253 94.9795H65.4748V97.93H68.4253V94.9795Z" fill="black"/>
<path d="M71.3758 94.9795H68.4253V97.93H71.3758L71.3758 94.9795Z" fill="black"/>
<path d="M74.3262 94.9795L71.3758 94.9795L71.3758 97.93L74.3262 97.93V94.9795Z" fill="black"/>
<path d="M80.2272 94.9795H77.2767V97.93H80.2272V94.9795Z" fill="black"/>
<path d="M83.1776 94.9795H80.2272V97.93H83.1776V94.9795Z" fill="black"/>
<path d="M89.0786 94.9795H86.1281V97.93H89.0786V94.9795Z" fill="black"/>
<path d="M100.88 94.9795H97.93V97.93H100.88V94.9795Z" fill="black"/>
<path d="M106.781 94.9795H103.831V97.93H106.781V94.9795Z" fill="black"/>
<path d="M112.682 94.9795H109.732V97.93H112.682V94.9795Z" fill="black"/>
<path d="M18.2674 97.93H15.3169L15.3169 100.88H18.2674V97.93Z" fill="black"/>
<path d="M24.1683 97.93H21.2178L21.2178 100.88H24.1683L24.1683 97.93Z" fill="black"/>
<path d="M27.1188 97.93L24.1683 97.93L24.1683 100.88L27.1188 100.88L27.1188 97.93Z" fill="black"/>
<path d="M30.0692 97.93H27.1188L27.1188 100.88H30.0692L30.0692 97.93Z" fill="black"/>
<path d="M35.9702 97.93H33.0197V100.88H35.9702V97.93Z" fill="black"/>
<path d="M41.8711 97.93H38.9206V100.88H41.8711V97.93Z" fill="black"/>
<path d="M47.772 97.93H44.8216V100.88H47.772L47.772 97.93Z" fill="black"/>
<path d="M50.7225 97.93L47.772 97.93L47.772 100.88L50.7225 100.88L50.7225 97.93Z" fill="black"/>
<path d="M53.673 97.93H50.7225L50.7225 100.88H53.673L53.673 97.93Z" fill="black"/>
<path d="M59.5739 97.93H56.6234L56.6234 100.88H59.5739L59.5739 97.93Z" fill="black"/>
<path d="M65.4748 97.93H62.5244L62.5244 100.88H65.4748V97.93Z" fill="black"/>
<path d="M71.3758 97.93H68.4253V100.88H71.3758V97.93Z" fill="black"/>
<path d="M74.3262 97.93L71.3758 97.93V100.88L74.3262 100.88V97.93Z" fill="black"/>
<path d="M77.2767 97.93H74.3262V100.88H77.2767V97.93Z" fill="black"/>
<path d="M89.0786 97.93H86.1281V100.88H89.0786V97.93Z" fill="black"/>
<path d="M92.029 97.93H89.0786V100.88H92.029V97.93Z" fill="black"/>
<path d="M94.9795 97.93L92.029 97.93V100.88L94.9795 100.88V97.93Z" fill="black"/>
<path d="M97.93 97.93H94.9795V100.88H97.93V97.93Z" fill="black"/>
<path d="M100.88 97.93H97.93V100.88H100.88V97.93Z" fill="black"/>
<path d="M103.831 97.93H100.88V100.88H103.831V97.93Z" fill="black"/>
<path d="M109.732 97.93H106.781V100.88H109.732V97.93Z" fill="black"/>
<path d="M18.2674 100.88H15.3169L15.3169 103.831H18.2674L18.2674 100.88Z" fill="black"/>
<path d="M24.1683 100.88H21.2178L21.2178 103.831H24.1683L24.1683 100.88Z" fill="black"/>
<path d="M27.1188 100.88L24.1683 100.88L24.1683 103.831L27.1188 103.831L27.1188 100.88Z" fill="black"/>
<path d="M30.0692 100.88H27.1188L27.1188 103.831H30.0692L30.0692 100.88Z" fill="black"/>
<path d="M35.9702 100.88H33.0197V103.831H35.9702V100.88Z" fill="black"/>
<path d="M41.8711 100.88H38.9206V103.831H41.8711V100.88Z" fill="black"/>
<path d="M44.8216 100.88H41.8711V103.831H44.8216V100.88Z" fill="black"/>
<path d="M50.7225 100.88L47.772 100.88V103.831L50.7225 103.831V100.88Z" fill="black"/>
<path d="M53.673 100.88H50.7225V103.831H53.673V100.88Z" fill="black"/>
<path d="M59.5739 100.88H56.6234V103.831H59.5739V100.88Z" fill="black"/>
<path d="M62.5244 100.88H59.5739V103.831H62.5244V100.88Z" fill="black"/>
<path d="M68.4253 100.88H65.4748V103.831H68.4253V100.88Z" fill="black"/>
<path d="M74.3262 100.88L71.3758 100.88L71.3758 103.831L74.3262 103.831V100.88Z" fill="black"/>
<path d="M77.2767 100.88H74.3262V103.831H77.2767V100.88Z" fill="black"/>
<path d="M83.1776 100.88H80.2272V103.831H83.1776V100.88Z" fill="black"/>
<path d="M97.93 100.88H94.9795V103.831H97.93V100.88Z" fill="black"/>
<path d="M100.88 100.88H97.93V103.831H100.88V100.88Z" fill="black"/>
<path d="M103.831 100.88H100.88V103.831H103.831V100.88Z" fill="black"/>
<path d="M106.781 100.88H103.831V103.831H106.781V100.88Z" fill="black"/>
<path d="M109.732 100.88H106.781V103.831H109.732V100.88Z" fill="black"/>
<path d="M112.682 100.88H109.732V103.831H112.682V100.88Z" fill="black"/>
<path d="M18.2674 103.831H15.3169L15.3169 106.781H18.2674V103.831Z" fill="black"/>
<path d="M24.1683 103.831H21.2178V106.781H24.1683V103.831Z" fill="black"/>
<path d="M27.1188 103.831L24.1683 103.831V106.781L27.1188 106.781V103.831Z" fill="black"/>
<path d="M30.0692 103.831H27.1188V106.781H30.0692V103.831Z" fill="black"/>
<path d="M35.9702 103.831H33.0197V106.781H35.9702V103.831Z" fill="black"/>
<path d="M41.8711 103.831H38.9206V106.781H41.8711V103.831Z" fill="black"/>
<path d="M44.8216 103.831H41.8711V106.781H44.8216V103.831Z" fill="black"/>
<path d="M47.772 103.831H44.8216V106.781H47.772V103.831Z" fill="black"/>
<path d="M50.7225 103.831L47.772 103.831V106.781L50.7225 106.781V103.831Z" fill="black"/>
<path d="M59.5739 103.831H56.6234V106.781H59.5739V103.831Z" fill="black"/>
<path d="M62.5244 103.831H59.5739V106.781H62.5244V103.831Z" fill="black"/>
<path d="M65.4748 103.831H62.5244V106.781H65.4748V103.831Z" fill="black"/>
<path d="M68.4253 103.831H65.4748V106.781H68.4253V103.831Z" fill="black"/>
<path d="M71.3758 103.831H68.4253V106.781H71.3758L71.3758 103.831Z" fill="black"/>
<path d="M74.3262 103.831L71.3758 103.831L71.3758 106.781L74.3262 106.781V103.831Z" fill="black"/>
<path d="M86.1281 103.831H83.1776V106.781H86.1281V103.831Z" fill="black"/>
<path d="M92.029 103.831H89.0786V106.781H92.029V103.831Z" fill="black"/>
<path d="M94.9795 103.831L92.029 103.831V106.781L94.9795 106.781V103.831Z" fill="black"/>
<path d="M97.93 103.831H94.9795V106.781H97.93V103.831Z" fill="black"/>
<path d="M109.732 103.831H106.781V106.781H109.732V103.831Z" fill="black"/>
<path d="M18.2674 106.781H15.3169L15.3169 109.732H18.2674L18.2674 106.781Z" fill="black"/>
<path d="M35.9702 106.781H33.0197V109.732H35.9702V106.781Z" fill="black"/>
<path d="M47.772 106.781H44.8216V109.732H47.772V106.781Z" fill="black"/>
<path d="M53.673 106.781H50.7225V109.732H53.673V106.781Z" fill="black"/>
<path d="M56.6234 106.781H53.673V109.732H56.6234V106.781Z" fill="black"/>
<path d="M59.5739 106.781H56.6234V109.732H59.5739V106.781Z" fill="black"/>
<path d="M71.3758 106.781H68.4253V109.732H71.3758V106.781Z" fill="black"/>
<path d="M74.3262 106.781L71.3758 106.781V109.732L74.3262 109.732V106.781Z" fill="black"/>
<path d="M83.1776 106.781H80.2272V109.732H83.1776V106.781Z" fill="black"/>
<path d="M89.0786 106.781H86.1281V109.732H89.0786V106.781Z" fill="black"/>
<path d="M94.9795 106.781L92.029 106.781V109.732L94.9795 109.732V106.781Z" fill="black"/>
<path d="M97.93 106.781H94.9795V109.732H97.93V106.781Z" fill="black"/>
<path d="M100.88 106.781H97.93V109.732H100.88V106.781Z" fill="black"/>
<path d="M112.682 106.781H109.732V109.732H112.682V106.781Z" fill="black"/>
<path d="M18.2674 109.732H15.3169L15.3169 112.682H18.2674V109.732Z" fill="black"/>
<path d="M21.2178 109.732H18.2674V112.682H21.2178V109.732Z" fill="black"/>
<path d="M24.1683 109.732H21.2178V112.682H24.1683L24.1683 109.732Z" fill="black"/>
<path d="M27.1188 109.732L24.1683 109.732L24.1683 112.682L27.1188 112.682L27.1188 109.732Z" fill="black"/>
<path d="M30.0692 109.732H27.1188L27.1188 112.682H30.0692L30.0692 109.732Z" fill="black"/>
<path d="M33.0197 109.732H30.0692L30.0692 112.682H33.0197V109.732Z" fill="black"/>
<path d="M35.9702 109.732H33.0197V112.682H35.9702V109.732Z" fill="black"/>
<path d="M44.8216 109.732H41.8711V112.682H44.8216V109.732Z" fill="black"/>
<path d="M56.6234 109.732H53.673L53.673 112.682H56.6234L56.6234 109.732Z" fill="black"/>
<path d="M65.4748 109.732H62.5244L62.5244 112.682H65.4748V109.732Z" fill="black"/>
<path d="M68.4253 109.732H65.4748V112.682H68.4253V109.732Z" fill="black"/>
<path d="M77.2767 109.732H74.3262V112.682H77.2767V109.732Z" fill="black"/>
<path d="M80.2272 109.732H77.2767V112.682H80.2272V109.732Z" fill="black"/>
<path d="M89.0786 109.732H86.1281V112.682H89.0786V109.732Z" fill="black"/>
<path d="M97.93 109.732H94.9795V112.682H97.93V109.732Z" fill="black"/>
<path d="M100.88 109.732H97.93V112.682H100.88V109.732Z" fill="black"/>
<path d="M103.831 109.732H100.88V112.682H103.831V109.732Z" fill="black"/>
<path fill-rule="evenodd" clip-rule="evenodd" d="M4.21875 20.5091C4.21875 11.5122 11.5122 4.21875 20.5091 4.21875L31.3818 4.21875V8.38484L20.5091 8.38484C13.813 8.38484 8.38484 13.813 8.38484 20.5091L8.38484 31.3818H4.21875L4.21875 20.5091ZM107.491 8.38484L96.6179 8.38484V4.21875L107.491 4.21875C116.488 4.21875 123.781 11.5122 123.781 20.5091L123.781 31.3818L119.615 31.3818L119.615 20.5091C119.615 13.813 114.187 8.38484 107.491 8.38484ZM8.38484 96.6179L8.38484 107.491C8.38484 114.187 13.813 119.615 20.5091 119.615L31.3818 119.615L31.3818 123.781L20.5091 123.781C11.5122 123.781 4.21875 116.488 4.21875 107.491L4.21875 96.6179H8.38484ZM119.615 107.491V96.6179H123.781V107.491C123.781 116.488 116.488 123.781 107.491 123.781H96.6179V119.615H107.491C114.187 119.615 119.615 114.187 119.615 107.491Z" fill="#CC0074"/>
</svg>
